<svg width="23" height="23" viewBox="0 0 23 23" fill="none" xmlns="http://www.w3.org/2000/svg">
<path d="M16.3607 0H6.63933C2.97466 0 0 2.97467 0 6.63933V16.3607C0 20.0253 2.97466 23 6.63933 23H16.3607C20.0253 23 23 20.0253 23 16.3607V6.63933C23 2.97467 20.0253 0 16.3607 0ZM20.884 16.5293C20.884 18.9597 18.9137 20.9377 16.4757 20.9377H6.52433C4.094 20.9377 2.116 18.9673 2.116 16.5293V6.578C2.116 4.14767 4.08633 2.16967 6.52433 2.16967H16.4757C18.906 2.16967 20.884 4.14 20.884 6.578V16.5293Z" fill="white"/>
<path d="M11.5 5.58895C8.20333 5.58895 5.53532 8.25695 5.53532 11.5536C5.53532 14.8503 8.20333 17.5183 11.5 17.5183C14.7967 17.5183 17.4647 14.8503 17.4647 11.5536C17.4647 8.25695 14.7967 5.58895 11.5 5.58895ZM11.5 15.4253C9.36099 15.4253 7.63599 13.6926 7.63599 11.5613C7.63599 9.42228 9.36866 7.69728 11.5 7.69728C13.639 7.69728 15.364 9.42995 15.364 11.5613C15.3717 13.6926 13.639 15.4253 11.5 15.4253Z" fill="white"/>
<path d="M17.6641 6.74666C18.4305 6.74666 19.0517 6.12538 19.0517 5.35899C19.0517 4.59261 18.4305 3.97133 17.6641 3.97133C16.8977 3.97133 16.2764 4.59261 16.2764 5.35899C16.2764 6.12538 16.8977 6.74666 17.6641 6.74666Z" fill="white"/>
</svg>
