<svg width="105" height="31" viewBox="0 0 105 31" fill="none" xmlns="http://www.w3.org/2000/svg">
<path d="M34.3127 11.5817C33.7321 11.6229 33.1856 11.6948 32.668 11.7953V22.1687H35.0388V18.6445H35.783C37.3648 18.6445 38.5835 18.3644 39.4319 17.8025C40.2839 17.2405 40.7099 16.3249 40.7099 15.061C40.7099 13.8061 40.2893 12.9012 39.4498 12.3501C38.6068 11.7971 37.4007 11.5206 35.8261 11.5206C35.3929 11.5188 34.8878 11.5404 34.3127 11.5817ZM36.9262 13.6122C37.2084 13.6553 37.4528 13.7361 37.6488 13.8527C37.8465 13.9694 37.9993 14.122 38.1053 14.3159C38.2096 14.508 38.2653 14.7504 38.2653 15.0448C38.2653 15.6499 38.0568 16.0682 37.6398 16.289C37.2228 16.5134 36.6044 16.6247 35.783 16.6247H35.0388V13.5852C35.1611 13.5763 35.3049 13.5655 35.4738 13.5565C35.641 13.5475 35.81 13.5404 35.9843 13.5404C36.3276 13.5404 36.6404 13.5637 36.9262 13.6122ZM47.1286 14.3159C47.0064 14.2657 46.859 14.2208 46.6865 14.1867C46.5139 14.1526 46.3431 14.1203 46.1706 14.0951C45.998 14.0718 45.8255 14.0502 45.6547 14.0359C45.4804 14.0197 45.3348 14.0125 45.2125 14.0125C44.5349 14.0125 43.9166 14.0754 43.3665 14.2046C42.8147 14.3285 42.3348 14.465 41.9286 14.605V22.1669H44.1952V16.0592C44.2958 16.0323 44.4432 16.0036 44.6409 15.9766C44.8387 15.9515 45.0094 15.9389 45.1514 15.9389C45.4642 15.9389 45.7608 15.9676 46.0358 16.0251C46.3054 16.079 46.5445 16.1328 46.7494 16.1813L47.1286 14.3159Z" fill="#FE8900"/>
<path d="M55.0045 16.4417C54.8104 15.9246 54.5408 15.4848 54.1975 15.1221C53.8542 14.7541 53.439 14.4722 52.9608 14.2693C52.4755 14.0682 51.947 13.9641 51.3701 13.9641C50.8039 13.9641 50.279 14.0682 49.7991 14.2693C49.3173 14.4722 48.8985 14.7541 48.5516 15.1221C48.2011 15.4848 47.9279 15.9246 47.7302 16.4417C47.5307 16.9569 47.4336 17.5296 47.4336 18.1598C47.4336 18.7864 47.5307 19.3609 47.7212 19.8797C47.9153 20.4022 48.1849 20.8474 48.53 21.2172C48.8734 21.5889 49.2868 21.8743 49.7703 22.0772C50.252 22.2783 50.7859 22.3788 51.3737 22.3788C51.9722 22.3788 52.5115 22.2783 52.9914 22.0772C53.4731 21.8743 53.8883 21.5889 54.2316 21.2172C54.5767 20.8492 54.841 20.4022 55.0207 19.8797C55.2041 19.3609 55.2957 18.7864 55.2957 18.1598C55.2921 17.5296 55.1951 16.9569 55.0045 16.4417ZM52.5636 19.8205C52.285 20.2298 51.8877 20.4363 51.3701 20.4363C50.8542 20.4363 50.4515 20.2298 50.1693 19.8205C49.8853 19.4094 49.7451 18.8564 49.7451 18.1598C49.7451 17.4578 49.8871 16.9102 50.1693 16.5099C50.4533 16.1095 50.8542 15.912 51.3701 15.912C51.8877 15.912 52.285 16.1113 52.5636 16.5099C52.8422 16.9102 52.9806 17.4596 52.9806 18.1598C52.9806 18.8564 52.8422 19.4094 52.5636 19.8205Z" fill="#FE8900"/>
<path d="M57.2328 11.2928C56.6486 11.8996 56.3574 12.7219 56.3574 13.7542V22.1671H58.624V16.0612H61.4191V14.1797H58.624V13.7847C58.624 13.5711 58.6456 13.3754 58.6887 13.1923C58.7373 13.0109 58.811 12.8529 58.9188 12.7219C59.0249 12.5926 59.1723 12.4849 59.3574 12.4095C59.5479 12.3341 59.7762 12.2946 60.0512 12.2946C60.2525 12.2946 60.4521 12.3108 60.6498 12.3413C60.8475 12.3718 61.0255 12.4221 61.1872 12.4921L61.5845 10.7147C61.3921 10.6357 61.1567 10.5585 60.8781 10.4867C60.5977 10.4149 60.2454 10.3826 59.8194 10.3826C58.678 10.3826 57.8152 10.6842 57.2328 11.2928ZM64.9925 14.1797H62.7295V22.1689H64.9925V14.1797ZM64.8038 10.8924C64.5341 10.6519 64.2196 10.5352 63.8547 10.5352C63.4898 10.5352 63.1717 10.6519 62.9038 10.8924C62.6342 11.1312 62.5012 11.4544 62.5012 11.8727C62.5012 12.291 62.6342 12.6142 62.9038 12.8529C63.1699 13.0917 63.488 13.2102 63.8547 13.2102C64.2196 13.2102 64.5341 13.0917 64.8038 12.8529C65.0716 12.6142 65.2046 12.291 65.2046 11.8727C65.2046 11.4544 65.0716 11.1294 64.8038 10.8924Z" fill="#FE8900"/>
<path d="M66.9688 18.9013C66.9688 19.4202 67.0155 19.8888 67.1143 20.3161C67.2078 20.7398 67.3804 21.1024 67.623 21.4004C67.8675 21.7003 68.191 21.9336 68.5973 22.1024C68.9981 22.2694 69.514 22.3502 70.1305 22.3502C70.6158 22.3502 71.0274 22.3125 71.3618 22.2281C71.6961 22.1491 71.9981 22.0521 72.2731 21.9372L71.9549 20.1778C71.7428 20.2604 71.5074 20.3232 71.2485 20.3699C70.9897 20.4148 70.7398 20.4381 70.4954 20.4381C69.9903 20.4381 69.6524 20.2963 69.4834 20.0108C69.3162 19.7272 69.2336 19.3502 69.2336 18.8726V16.0593H71.9549V14.1778H69.2336V11.8259L66.9688 12.1904V18.9013ZM78.2964 20.1329V11.641H75.9256V22.1652H82.9663V20.1311H78.2964V20.1329ZM86.2125 20.3843C85.9734 20.246 85.853 20.0019 85.853 19.6464C85.853 19.4651 85.8944 19.3143 85.9752 19.1904C86.0561 19.0701 86.1676 18.9731 86.3096 18.8995C86.4516 18.8295 86.6151 18.7828 86.8021 18.7559C86.9908 18.7308 87.1921 18.7182 87.4042 18.7182C87.557 18.7182 87.7224 18.7308 87.9039 18.7469C88.0855 18.7685 88.2239 18.7882 88.3155 18.8098V20.5261C88.1933 20.5459 88.0333 20.5602 87.8302 20.5692C87.6271 20.5782 87.415 20.5854 87.1921 20.5854C86.7751 20.5889 86.448 20.5189 86.2125 20.3843ZM86.2287 14.0019C85.9662 14.0288 85.7218 14.0593 85.4881 14.0952C85.258 14.1311 85.0388 14.1706 84.8428 14.2173C84.6433 14.2622 84.4779 14.3053 84.3485 14.3466L84.6379 16.1688C84.9111 16.0683 85.2365 15.9875 85.6103 15.9336C85.9842 15.8762 86.3635 15.8511 86.7481 15.8511C87.3251 15.8511 87.7314 15.966 87.965 16.2012C88.1987 16.4345 88.3155 16.7415 88.3155 17.1257V17.3376C88.1735 17.2963 87.9902 17.2658 87.7601 17.2407C87.5336 17.2137 87.2712 17.2029 86.9782 17.2029C86.5432 17.2029 86.119 17.2442 85.7146 17.3322C85.3102 17.4184 84.9507 17.5566 84.6361 17.7469C84.3216 17.939 84.0699 18.1994 83.883 18.5243C83.6942 18.8475 83.6026 19.2424 83.6026 19.7074C83.6026 20.194 83.6817 20.6033 83.847 20.9372C84.0088 21.273 84.2425 21.5423 84.5462 21.7505C84.8518 21.957 85.2149 22.1078 85.6319 22.1994C86.0543 22.2891 86.5235 22.334 87.0411 22.334C87.8626 22.334 88.56 22.2855 89.1388 22.1922C89.7176 22.0952 90.1669 22.0108 90.4941 21.9372V17.2317C90.4941 16.7362 90.4384 16.2855 90.3269 15.8816C90.2137 15.4776 90.0213 15.1329 89.7553 14.8493C89.4857 14.5656 89.1298 14.3466 88.6822 14.1958C88.2365 14.0432 87.6792 13.9678 87.0124 13.9678C86.7463 13.966 86.4839 13.9803 86.2287 14.0019ZM96.379 19.7972C96.0663 20.2227 95.5989 20.4363 94.9806 20.4363C94.7775 20.4363 94.5905 20.4274 94.418 20.413C94.2472 20.3968 94.1052 20.3789 93.992 20.3591V16.2442C94.134 16.1527 94.3209 16.0773 94.5492 16.0162C94.7775 15.9552 95.0057 15.9247 95.2394 15.9247C96.3143 15.9247 96.85 16.6536 96.85 18.1096C96.85 18.8116 96.6936 19.3717 96.379 19.7972ZM98.9332 16.4633C98.784 15.9534 98.5611 15.5171 98.2646 15.1509C97.9716 14.7864 97.6049 14.5064 97.1699 14.3071C96.7349 14.1114 96.2334 14.0108 95.6636 14.0108C95.3509 14.0108 95.0561 14.0414 94.7829 14.1006C94.5114 14.1617 94.2454 14.2496 93.992 14.3591V10.3843L91.7272 10.7487V21.9103C91.9303 21.9713 92.1639 22.027 92.4264 22.0845C92.6888 22.1401 92.9674 22.1886 93.255 22.2281C93.5444 22.2694 93.8392 22.2999 94.1358 22.3286C94.4342 22.352 94.7217 22.3663 94.995 22.3663C95.6546 22.3663 96.2424 22.2694 96.7583 22.0719C97.2742 21.8744 97.7127 21.5925 98.065 21.2281C98.4209 20.8636 98.6924 20.422 98.8811 19.9085C99.0698 19.3897 99.1615 18.8152 99.1615 18.176C99.1615 17.5459 99.086 16.9749 98.9332 16.4633Z" fill="#FE8900"/>
<path d="M9.48923 18.3251C10.192 17.9588 10.5407 17.264 10.5407 16.2605C10.5407 15.7685 10.4491 15.3664 10.2729 15.0486C10.0914 14.729 9.83614 14.4741 9.50181 14.2802C9.16928 14.0863 8.76125 13.9517 8.28492 13.8798C7.80679 13.8008 7.27834 13.7614 6.69775 13.7614C6.59889 13.7614 6.50542 13.7685 6.41016 13.7703V18.8798C7.76905 18.8763 8.7954 18.6913 9.48923 18.3251Z" fill="#FE8900"/>
<path d="M17.5169 6.1394H6.41211V10.4069C6.4193 10.4069 6.43008 10.4051 6.43727 10.4051C9.09034 10.4051 11.1233 10.8647 12.5433 11.7839C13.9561 12.6995 14.6661 14.2004 14.6661 16.2848C14.6661 18.3854 13.9489 19.9024 12.5127 20.8378C11.0891 21.766 9.0508 22.2292 6.41211 22.2346V26.6259H26.9231V22.0855H17.5169V6.1394Z" fill="#FE8900"/>
<path d="M26.9252 6.13647H21.3477V18.8474H26.9252V6.13647Z" fill="#FE8900"/>
</svg>
