<svg width="14" height="24" viewBox="0 0 14 24" fill="none" xmlns="http://www.w3.org/2000/svg">
<path d="M6.7141 3.55539C5.34606 3.55539 4.23821 4.67815 4.23821 6.06459C4.23821 7.45102 5.34606 8.57377 6.7141 8.57377C8.08213 8.57377 9.18999 7.45102 9.18999 6.06459C9.18999 4.67815 8.08213 3.55539 6.7141 3.55539ZM6.7141 12.1292C3.41571 12.1292 0.729993 9.40734 0.729993 6.06459C0.729993 2.72183 3.41571 0 6.7141 0C10.0125 0 12.6982 2.72183 12.6982 6.06459C12.6982 9.40734 10.0125 12.1292 6.7141 12.1292ZM4.29696 17.071C3.06321 16.7903 1.88821 16.297 0.822314 15.6165C-0.000185966 15.0977 -0.243579 14.0004 0.268385 13.1669C0.78035 12.3333 1.86303 12.0866 2.68553 12.6055C5.13624 14.1705 8.29196 14.162 10.7427 12.6055C11.5652 12.0866 12.6395 12.3333 13.1598 13.1584C13.6718 13.9919 13.4284 15.0892 12.6143 15.608C11.5484 16.2885 10.3734 16.7818 9.13963 17.0625L12.4884 20.4563C13.1766 21.1537 13.1766 22.2765 12.4884 22.9655C11.8002 23.6629 10.6923 23.6629 10.0125 22.9655L6.7141 19.6397L3.4241 22.974C2.74428 23.6714 1.63642 23.6714 0.948208 22.974C0.259994 22.285 0.259994 21.1623 0.948208 20.4648L4.29696 17.071Z" fill="white"/>
</svg>
